# xmcd
#
# Track frame offsets:
# 150
# 29177
# 50191
# 64796
# 86401
# 108293
# 142791
#
# Disc length: 2199 seconds
#
# Revision: 3
# Processed by: cddbd v1.5.2PL0 Copyright (c) Steve Scherf et al.
# Submitted via: Audio-CD-Archiv 4.00.530
#
DISCID=5e089507
DTITLE=Engerling - Tagtraum
DYEAR=1981
DGENRE=blues
TTITLE0=Muschellied
TTITLE1=Engerling's Blues
TTITLE2=21 Uhr 55
TTITLE3=Knüppel aus dem Sack
TTITLE4=Tommy Simpson
TTITLE5=Tagtraum früh im Park
TTITLE6=Auf verlorenenm Posten
EXTD=
EXTT0=
EXTT1=
EXTT2=
EXTT3=
EXTT4=
EXTT5=
EXTT6=
PLAYORDER=
